<svg id="Layer_1" data-name="Layer 1" xmlns="http://www.w3.org/2000/svg" viewBox="7 7 244.9 60"><defs><style>.cls-1{fill:#878787;}.cls-2{fill:#06c;}</style></defs><title>DiaLog_LogoArtboard 133</title><path class="cls-1" d="M183.28,63V15.58h53.42V51.49H193.13Zm3.1-44.31V54.61l5.33-6.21h41.9V18.68Z"/><path class="cls-2" d="M252,51.67l-9.85-11.49H198.53V4.26H252ZM201.63,37.08h41.9l5.33,6.21V7.36H201.63Z"/><path class="cls-2" d="M10.83,62.69H5.66V37.94h9.56c3.53,0,5.79,2.26,5.79,6.48,0,3.15-1.23,5.52-4.59,6.07v.06c1.13.14,4.49.42,4.49,4.87,0,1.58.1,6.24.58,7.27H16.42a11.46,11.46,0,0,1-.55-4.8c0-3,.28-5.45-3.7-5.45H10.83Zm0-14h2.3c2.06,0,2.64-2.06,2.64-3.64,0-2.36-1-3.25-2.64-3.25h-2.3Z"/><path class="cls-2" d="M22.8,53.81c0-4.73.68-8.77,7.06-8.77s7.06,4,7.06,8.77c0,5.42-.83,9.22-7.06,9.22S22.8,59.23,22.8,53.81Zm9.28-.27c0-3.6-.17-5.42-2.22-5.42s-2.23,1.82-2.23,5.42c0,5.27.44,6.4,2.23,6.4S32.08,58.81,32.08,53.54Z"/><path class="cls-2" d="M47.78,51.55c0-2.57-.65-3.43-2.16-3.43-2.06,0-2.23,1.82-2.23,5.42,0,5.27.45,6.4,2.23,6.4,1.51,0,2.23-1.37,2.23-3.63h4.83c0,4.7-2.54,6.72-7.06,6.72-6.24,0-7.06-3.8-7.06-9.22,0-4.73.69-8.77,7.06-8.77,4.46,0,7,2,7,6.51Z"/><path class="cls-2" d="M63.2,62.69V50.76c0-1.54-.27-2.74-1.82-2.74s-1.81,1.2-1.81,2.74V62.69H54.74V37.94h4.83v9.19h.07A4.29,4.29,0,0,1,63.72,45C66,45,68,46.41,68,48.81V62.69Z"/><path class="cls-2" d="M75,54.8c0,2.06.07,5.14,2.19,5.14,1.71,0,2.06-1.64,2.06-3.08h4.9a6.19,6.19,0,0,1-1.85,4.49A7.28,7.28,0,0,1,77.15,63c-6.24,0-7.06-3.8-7.06-9.22,0-4.73.69-8.77,7.06-8.77s7.23,4.21,7.06,9.76Zm4.42-2.7c0-1.68.07-4.08-2.23-4.08S75,50.62,75,52.1Z"/><path class="cls-1" d="M92.74,37.94h7.61c3.15,0,5.42,1.13,6.65,3.77,1,2.09,1.1,7,1.1,7.82,0,5.27-.48,8.32-1.51,10-1.34,2.12-3.84,3.19-8.16,3.19H92.74Zm3.16,22h3c4.38,0,6-1.64,6-7.4v-5c0-5-1.55-6.86-4.84-6.86H95.9Z"/><path class="cls-1" d="M111,37.94h3.15v3H111Zm3,24.75h-2.81V45.38H114Z"/><path class="cls-1" d="M126.05,60.18H126A4.25,4.25,0,0,1,121.63,63c-3.66,0-4.73-2.37-4.73-5.69,0-5.24,5.14-5.48,9.09-5.38.06-2.3.1-4.8-2.92-4.8a2.56,2.56,0,0,0-2.7,3.09h-3.06c.14-3.88,2.2-5.21,5.86-5.21,4.46,0,5.63,2.29,5.63,5.21v8.32a26.94,26.94,0,0,0,.34,4.12h-3.09Zm-6.34-2.63c0,1.68.83,3.18,2.71,3.18,1.71,0,3.84-1.06,3.57-6.65C123.31,54.12,119.71,53.88,119.71,57.55Z"/><path class="cls-1" d="M132.19,62.69V37.94h3.15v22h9.08v2.75Z"/><path class="cls-1" d="M145.7,54.29c0-5.07.58-9.25,6.58-9.25s6.58,4.18,6.58,9.25c0,7.64-2.92,8.74-6.58,8.74S145.7,61.93,145.7,54.29Zm10.21-1.2c0-4.73-1.47-5.76-3.63-5.76s-3.63,1-3.63,5.76c0,5.62.71,7.64,3.63,7.64S155.91,58.71,155.91,53.09Z"/><path class="cls-1" d="M170.62,45.38h2.81V64.43c0,3.88-2.57,4.8-6.37,4.8-2.88,0-5.49-1.44-5.25-4.62H165a2.41,2.41,0,0,0,2.64,2.5,2.76,2.76,0,0,0,3-3v-3.6h-.1a4.34,4.34,0,0,1-3.8,2.16c-4.7,0-5.63-4-5.63-9.19,0-8,4-8.46,5.42-8.46a4.14,4.14,0,0,1,4,2.46h.07Zm-3.29,2c-3.19,0-3.29,3.84-3.29,6.13,0,5.55,1.27,6.86,3.36,6.86,3.39,0,3.29-4,3.29-6.41C170.69,51.38,170.86,47.37,167.33,47.37Z"/></svg>