<svg id="Ebene_1" data-name="Ebene 1" xmlns="http://www.w3.org/2000/svg" viewBox="0 0 491.17 283.46"><defs><style>.cls-1{fill:#06c;}</style></defs><title>Roche_logoZeichenfläche 14</title><path class="cls-1" d="M255.68,98.43c-23.93,0-23.93,25.94-23.93,25.94s-1.91,14.46,0,27c1,12.45,3.83,27.86,25.85,27.86,23.07,0,25-22.11,25-26.9v-1.91H267.17c0,9.57-1.91,15.32-11.49,15.32-10.53,0-9.67-17.33-9.67-17.33a172.23,172.23,0,0,1,0-23.07C247,110,256.64,111,256.64,111c11.48,0,11.48,17.33,11.48,17.33h14.46v-3.93c-1-9.57-2.87-25.94-26.9-25.94Z"/><path class="cls-1" d="M323.93,97.47a21.56,21.56,0,0,0-15.41,6.71V69.62H294.16V178.26h15.32V121.5s0-10.53,9.67-10.53,10.53,7.66,10.53,10.53v56.76h13.5V120.54s0-23.07-19.25-23.07Z"/><path class="cls-1" d="M371,158.07c-.95-11.58,0-15.41,0-15.41h38.49a151.19,151.19,0,0,0-1-18.29c-.95-9.57-4.88-25.94-25.94-25.94-24.12,0-26,26.9-26,26.9a204.78,204.78,0,0,0,0,26c1.91,12.45,3.83,28.82,26.89,28.82s25.08-23.07,25.08-27.86H392.19c0,20.2-19.24,18.29-21.16,5.75ZM382.61,111c11.49,0,9.58,19.24,9.58,19.24H372c0-21.15,10.62-19.24,10.62-19.24Z"/><path class="cls-1" d="M191.36,98.43c-24,0-25,26.9-25,26.9a200,200,0,0,0,0,26c1,12.45,2.87,27.86,26.9,27.86s24-22.11,25-26.9v-27c0-9.57-2.87-26.9-26.89-26.9Zm10.52,50c0,11.59-.95,17.33-9.57,17.33-11.58,0-10.62-16.28-10.62-16.28V125.33c0-14.36,10.62-14.36,10.62-14.36,10.53,0,10.53,15.41,10.53,15.41s-1,17.23-1,22Z"/><path class="cls-1" d="M143.3,121.5s11.49-3.83,11.49-25c0-24-25.94-25.95-31.69-25.95H101V178.26H116.4v-50h7.66c13.4,0,14.46,11.48,14.46,11.48l1.91,38.48h15.32s-1-20.19-1.92-37.52c-1.91-17.32-10.53-19.24-10.53-19.24Zm-26.9-5.74V85c3.83,0,23.07-1.91,23.07,13.4,0,20.2-23.07,17.33-23.07,17.33Z"/><path class="cls-1" d="M382.61.41h-272L0,132.13,110.56,265.76H382.61L491.17,132.13,382.61.41Zm-5.83,252.81H116.4l-101-121.09,101-118.32H376.78l99.07,118.32L376.78,253.22Z"/></svg>